<mxfile host="app.diagrams.net" agent="Mozilla/5.0 (Windows NT 10.0; Win64; x64) AppleWebKit/537.36 (KHTML, like Gecko) Chrome/128.0.0.0 Safari/537.36" version="24.7.14">
  <diagram name="Page-1" id="lGd4Lo5ZM_9n6E0Vvopc">
    <mxGraphModel dx="2925" dy="928" grid="1" gridSize="10" guides="1" tooltips="1" connect="1" arrows="1" fold="1" page="1" pageScale="1" pageWidth="850" pageHeight="1100" math="0" shadow="0">
      <root>
        <mxCell id="0" />
        <mxCell id="1" parent="0" />
        <mxCell id="_hzz50pAHIIWiuJxTLdp-193" value="" style="rounded=0;whiteSpace=wrap;html=1;fillColor=#99CCFF;" vertex="1" parent="1">
          <mxGeometry x="660" y="40" width="100" height="740" as="geometry" />
        </mxCell>
        <mxCell id="_hzz50pAHIIWiuJxTLdp-143" value="" style="rounded=0;whiteSpace=wrap;html=1;fillColor=#FFE599;" vertex="1" parent="1">
          <mxGeometry x="-365" y="315" width="100" height="390" as="geometry" />
        </mxCell>
        <mxCell id="_hzz50pAHIIWiuJxTLdp-21" value="" style="shape=cylinder3;whiteSpace=wrap;html=1;boundedLbl=1;backgroundOutline=1;size=15;fillColor=#F19C99;" vertex="1" parent="1">
          <mxGeometry x="-20" y="300" width="60" height="80" as="geometry" />
        </mxCell>
        <mxCell id="_hzz50pAHIIWiuJxTLdp-23" value="" style="shape=cylinder3;whiteSpace=wrap;html=1;boundedLbl=1;backgroundOutline=1;size=15;fillColor=#F19C99;" vertex="1" parent="1">
          <mxGeometry x="20" y="300" width="60" height="80" as="geometry" />
        </mxCell>
        <mxCell id="_hzz50pAHIIWiuJxTLdp-22" value="" style="shape=cylinder3;whiteSpace=wrap;html=1;boundedLbl=1;backgroundOutline=1;size=15;fillColor=#F19C99;" vertex="1" parent="1">
          <mxGeometry x="-10" y="310" width="80" height="100" as="geometry" />
        </mxCell>
        <mxCell id="_hzz50pAHIIWiuJxTLdp-24" value="" style="shape=cylinder3;whiteSpace=wrap;html=1;boundedLbl=1;backgroundOutline=1;size=15;fillColor=#F19C99;" vertex="1" parent="1">
          <mxGeometry x="-20" y="450" width="60" height="80" as="geometry" />
        </mxCell>
        <mxCell id="_hzz50pAHIIWiuJxTLdp-25" value="" style="shape=cylinder3;whiteSpace=wrap;html=1;boundedLbl=1;backgroundOutline=1;size=15;fillColor=#F19C99;" vertex="1" parent="1">
          <mxGeometry x="20" y="450" width="60" height="80" as="geometry" />
        </mxCell>
        <mxCell id="_hzz50pAHIIWiuJxTLdp-26" value="" style="shape=cylinder3;whiteSpace=wrap;html=1;boundedLbl=1;backgroundOutline=1;size=15;fillColor=#F19C99;" vertex="1" parent="1">
          <mxGeometry x="-10" y="460" width="80" height="100" as="geometry" />
        </mxCell>
        <mxCell id="_hzz50pAHIIWiuJxTLdp-27" value="" style="shape=cylinder3;whiteSpace=wrap;html=1;boundedLbl=1;backgroundOutline=1;size=15;fillColor=#F19C99;" vertex="1" parent="1">
          <mxGeometry x="-20" y="580" width="60" height="80" as="geometry" />
        </mxCell>
        <mxCell id="_hzz50pAHIIWiuJxTLdp-28" value="" style="shape=cylinder3;whiteSpace=wrap;html=1;boundedLbl=1;backgroundOutline=1;size=15;fillColor=#F19C99;" vertex="1" parent="1">
          <mxGeometry x="20" y="580" width="60" height="80" as="geometry" />
        </mxCell>
        <mxCell id="_hzz50pAHIIWiuJxTLdp-29" value="" style="shape=cylinder3;whiteSpace=wrap;html=1;boundedLbl=1;backgroundOutline=1;size=15;fillColor=#F19C99;" vertex="1" parent="1">
          <mxGeometry x="-10" y="590" width="80" height="100" as="geometry" />
        </mxCell>
        <mxCell id="_hzz50pAHIIWiuJxTLdp-30" value="Customer Data" style="text;html=1;align=center;verticalAlign=middle;whiteSpace=wrap;rounded=0;" vertex="1" parent="1">
          <mxGeometry x="-10" y="345" width="80" height="45" as="geometry" />
        </mxCell>
        <mxCell id="_hzz50pAHIIWiuJxTLdp-31" value="Transactional Data" style="text;html=1;align=center;verticalAlign=middle;whiteSpace=wrap;rounded=0;" vertex="1" parent="1">
          <mxGeometry x="-10" y="500" width="80" height="45" as="geometry" />
        </mxCell>
        <mxCell id="_hzz50pAHIIWiuJxTLdp-32" value="External&lt;div&gt;&amp;nbsp;Data&lt;/div&gt;" style="text;html=1;align=center;verticalAlign=middle;whiteSpace=wrap;rounded=0;" vertex="1" parent="1">
          <mxGeometry x="-10" y="630" width="80" height="45" as="geometry" />
        </mxCell>
        <mxCell id="_hzz50pAHIIWiuJxTLdp-33" value="Data Set Customer Segment B" style="swimlane;fontStyle=0;childLayout=stackLayout;horizontal=1;startSize=30;horizontalStack=0;resizeParent=1;resizeParentMax=0;resizeLast=0;collapsible=1;marginBottom=0;whiteSpace=wrap;html=1;fillColor=#47C2FF;" vertex="1" parent="1">
          <mxGeometry x="150" y="390" width="310" height="160" as="geometry" />
        </mxCell>
        <mxCell id="_hzz50pAHIIWiuJxTLdp-34" value="Customer 1 | Feature 1..Feature N | Spend in X months" style="text;strokeColor=none;fillColor=#B3B3B3;align=left;verticalAlign=middle;spacingLeft=4;spacingRight=4;overflow=hidden;points=[[0,0.5],[1,0.5]];portConstraint=eastwest;rotatable=0;whiteSpace=wrap;html=1;" vertex="1" parent="_hzz50pAHIIWiuJxTLdp-33">
          <mxGeometry y="30" width="310" height="30" as="geometry" />
        </mxCell>
        <mxCell id="_hzz50pAHIIWiuJxTLdp-35" value="Customer 2 | Feature 1..Feature N | Spend in X months&lt;div&gt;&lt;span style=&quot;white-space: pre;&quot;&gt;&#x9;&lt;/span&gt;.&lt;span style=&quot;white-space: pre;&quot;&gt;&#x9;&lt;/span&gt;&lt;span style=&quot;white-space: pre;&quot;&gt;&#x9;&lt;/span&gt;&lt;span style=&quot;white-space: pre;&quot;&gt;&#x9;&lt;/span&gt;&lt;span style=&quot;white-space: pre;&quot;&gt;&#x9;&lt;/span&gt;.&lt;span style=&quot;white-space: pre;&quot;&gt;&#x9;&lt;/span&gt;&lt;span style=&quot;white-space: pre;&quot;&gt;&#x9;&lt;/span&gt;&lt;span style=&quot;white-space: pre;&quot;&gt;&#x9;&lt;/span&gt;&lt;span style=&quot;white-space: pre;&quot;&gt;&#x9;&lt;/span&gt;.&lt;/div&gt;&lt;div&gt;&lt;span style=&quot;white-space: pre;&quot;&gt;&#x9;&lt;/span&gt;.&lt;span style=&quot;white-space: pre;&quot;&gt;&#x9;&lt;/span&gt;&lt;span style=&quot;white-space: pre;&quot;&gt;&#x9;&lt;/span&gt;&lt;span style=&quot;white-space: pre;&quot;&gt;&#x9;&lt;/span&gt;&lt;span style=&quot;white-space: pre;&quot;&gt;&#x9;&lt;/span&gt;.&lt;span style=&quot;white-space: pre;&quot;&gt;&#x9;&lt;/span&gt;&lt;span style=&quot;white-space: pre;&quot;&gt;&#x9;&lt;/span&gt;&lt;span style=&quot;white-space: pre;&quot;&gt;&#x9;&lt;/span&gt;&lt;span style=&quot;white-space: pre;&quot;&gt;&#x9;&lt;/span&gt;.&lt;/div&gt;&lt;div&gt;&lt;span style=&quot;white-space: pre;&quot;&gt;&#x9;&lt;/span&gt;.&lt;span style=&quot;white-space: pre;&quot;&gt;&#x9;&lt;/span&gt;&lt;span style=&quot;white-space: pre;&quot;&gt;&#x9;&lt;/span&gt;&lt;span style=&quot;white-space: pre;&quot;&gt;&#x9;&lt;/span&gt;&lt;span style=&quot;white-space: pre;&quot;&gt;&#x9;&lt;/span&gt;.&lt;span style=&quot;white-space: pre;&quot;&gt;&#x9;&lt;/span&gt;&lt;span style=&quot;white-space: pre;&quot;&gt;&#x9;&lt;/span&gt;&lt;span style=&quot;white-space: pre;&quot;&gt;&#x9;&lt;/span&gt;&lt;span style=&quot;white-space: pre;&quot;&gt;&#x9;&lt;/span&gt;.&lt;/div&gt;" style="text;strokeColor=none;fillColor=#B3B3B3;align=left;verticalAlign=middle;spacingLeft=4;spacingRight=4;overflow=hidden;points=[[0,0.5],[1,0.5]];portConstraint=eastwest;rotatable=0;whiteSpace=wrap;html=1;" vertex="1" parent="_hzz50pAHIIWiuJxTLdp-33">
          <mxGeometry y="60" width="310" height="70" as="geometry" />
        </mxCell>
        <mxCell id="_hzz50pAHIIWiuJxTLdp-36" value="Customer N | Feature 1..Feature N | Spend in X months" style="text;strokeColor=none;fillColor=#B3B3B3;align=left;verticalAlign=middle;spacingLeft=4;spacingRight=4;overflow=hidden;points=[[0,0.5],[1,0.5]];portConstraint=eastwest;rotatable=0;whiteSpace=wrap;html=1;" vertex="1" parent="_hzz50pAHIIWiuJxTLdp-33">
          <mxGeometry y="130" width="310" height="30" as="geometry" />
        </mxCell>
        <mxCell id="_hzz50pAHIIWiuJxTLdp-37" value="Training Set" style="swimlane;fontStyle=0;childLayout=stackLayout;horizontal=1;startSize=30;horizontalStack=0;resizeParent=1;resizeParentMax=0;resizeLast=0;collapsible=1;marginBottom=0;whiteSpace=wrap;html=1;fillColor=#99CCFF;" vertex="1" parent="1">
          <mxGeometry x="500" y="345" width="70" height="120" as="geometry" />
        </mxCell>
        <mxCell id="_hzz50pAHIIWiuJxTLdp-38" value="Row 1" style="text;strokeColor=none;fillColor=#B3B3B3;align=left;verticalAlign=middle;spacingLeft=4;spacingRight=4;overflow=hidden;points=[[0,0.5],[1,0.5]];portConstraint=eastwest;rotatable=0;whiteSpace=wrap;html=1;" vertex="1" parent="_hzz50pAHIIWiuJxTLdp-37">
          <mxGeometry y="30" width="70" height="30" as="geometry" />
        </mxCell>
        <mxCell id="_hzz50pAHIIWiuJxTLdp-39" value="Row 2" style="text;strokeColor=none;fillColor=#B3B3B3;align=left;verticalAlign=middle;spacingLeft=4;spacingRight=4;overflow=hidden;points=[[0,0.5],[1,0.5]];portConstraint=eastwest;rotatable=0;whiteSpace=wrap;html=1;" vertex="1" parent="_hzz50pAHIIWiuJxTLdp-37">
          <mxGeometry y="60" width="70" height="30" as="geometry" />
        </mxCell>
        <mxCell id="_hzz50pAHIIWiuJxTLdp-40" value="Row N" style="text;strokeColor=none;fillColor=#B3B3B3;align=left;verticalAlign=middle;spacingLeft=4;spacingRight=4;overflow=hidden;points=[[0,0.5],[1,0.5]];portConstraint=eastwest;rotatable=0;whiteSpace=wrap;html=1;" vertex="1" parent="_hzz50pAHIIWiuJxTLdp-37">
          <mxGeometry y="90" width="70" height="30" as="geometry" />
        </mxCell>
        <mxCell id="_hzz50pAHIIWiuJxTLdp-41" value="Testing Set" style="swimlane;fontStyle=0;childLayout=stackLayout;horizontal=1;startSize=30;horizontalStack=0;resizeParent=1;resizeParentMax=0;resizeLast=0;collapsible=1;marginBottom=0;whiteSpace=wrap;html=1;fillColor=#FFB570;" vertex="1" parent="1">
          <mxGeometry x="500" y="490" width="70" height="120" as="geometry" />
        </mxCell>
        <mxCell id="_hzz50pAHIIWiuJxTLdp-42" value="Row 1" style="text;strokeColor=none;fillColor=#B3B3B3;align=left;verticalAlign=middle;spacingLeft=4;spacingRight=4;overflow=hidden;points=[[0,0.5],[1,0.5]];portConstraint=eastwest;rotatable=0;whiteSpace=wrap;html=1;" vertex="1" parent="_hzz50pAHIIWiuJxTLdp-41">
          <mxGeometry y="30" width="70" height="30" as="geometry" />
        </mxCell>
        <mxCell id="_hzz50pAHIIWiuJxTLdp-43" value="Row 2" style="text;strokeColor=none;fillColor=#B3B3B3;align=left;verticalAlign=middle;spacingLeft=4;spacingRight=4;overflow=hidden;points=[[0,0.5],[1,0.5]];portConstraint=eastwest;rotatable=0;whiteSpace=wrap;html=1;" vertex="1" parent="_hzz50pAHIIWiuJxTLdp-41">
          <mxGeometry y="60" width="70" height="30" as="geometry" />
        </mxCell>
        <mxCell id="_hzz50pAHIIWiuJxTLdp-44" value="Row N" style="text;strokeColor=none;fillColor=#B3B3B3;align=left;verticalAlign=middle;spacingLeft=4;spacingRight=4;overflow=hidden;points=[[0,0.5],[1,0.5]];portConstraint=eastwest;rotatable=0;whiteSpace=wrap;html=1;" vertex="1" parent="_hzz50pAHIIWiuJxTLdp-41">
          <mxGeometry y="90" width="70" height="30" as="geometry" />
        </mxCell>
        <mxCell id="_hzz50pAHIIWiuJxTLdp-45" value="" style="endArrow=classic;html=1;rounded=0;exitX=1;exitY=0.5;exitDx=0;exitDy=0;entryX=0;entryY=0.5;entryDx=0;entryDy=0;" edge="1" parent="1" source="_hzz50pAHIIWiuJxTLdp-35" target="_hzz50pAHIIWiuJxTLdp-39">
          <mxGeometry width="50" height="50" relative="1" as="geometry">
            <mxPoint x="340" y="500" as="sourcePoint" />
            <mxPoint x="390" y="450" as="targetPoint" />
          </mxGeometry>
        </mxCell>
        <mxCell id="_hzz50pAHIIWiuJxTLdp-46" value="" style="endArrow=classic;html=1;rounded=0;exitX=1;exitY=0.5;exitDx=0;exitDy=0;entryX=0;entryY=0.5;entryDx=0;entryDy=0;" edge="1" parent="1" source="_hzz50pAHIIWiuJxTLdp-35" target="_hzz50pAHIIWiuJxTLdp-43">
          <mxGeometry width="50" height="50" relative="1" as="geometry">
            <mxPoint x="470" y="495" as="sourcePoint" />
            <mxPoint x="510" y="430" as="targetPoint" />
          </mxGeometry>
        </mxCell>
        <mxCell id="_hzz50pAHIIWiuJxTLdp-47" value="Data Set Customer Segment C" style="swimlane;fontStyle=0;childLayout=stackLayout;horizontal=1;startSize=30;horizontalStack=0;resizeParent=1;resizeParentMax=0;resizeLast=0;collapsible=1;marginBottom=0;whiteSpace=wrap;html=1;fillColor=#47C2FF;" vertex="1" parent="1">
          <mxGeometry x="150" y="675" width="310" height="160" as="geometry" />
        </mxCell>
        <mxCell id="_hzz50pAHIIWiuJxTLdp-48" value="Customer 1 | Feature 1..Feature N | Spend in X months" style="text;strokeColor=none;fillColor=#B3B3B3;align=left;verticalAlign=middle;spacingLeft=4;spacingRight=4;overflow=hidden;points=[[0,0.5],[1,0.5]];portConstraint=eastwest;rotatable=0;whiteSpace=wrap;html=1;" vertex="1" parent="_hzz50pAHIIWiuJxTLdp-47">
          <mxGeometry y="30" width="310" height="30" as="geometry" />
        </mxCell>
        <mxCell id="_hzz50pAHIIWiuJxTLdp-49" value="Customer 2 | Feature 1..Feature N | Spend in X months&lt;div&gt;&lt;span style=&quot;white-space: pre;&quot;&gt;&#x9;&lt;/span&gt;.&lt;span style=&quot;white-space: pre;&quot;&gt;&#x9;&lt;/span&gt;&lt;span style=&quot;white-space: pre;&quot;&gt;&#x9;&lt;/span&gt;&lt;span style=&quot;white-space: pre;&quot;&gt;&#x9;&lt;/span&gt;&lt;span style=&quot;white-space: pre;&quot;&gt;&#x9;&lt;/span&gt;.&lt;span style=&quot;white-space: pre;&quot;&gt;&#x9;&lt;/span&gt;&lt;span style=&quot;white-space: pre;&quot;&gt;&#x9;&lt;/span&gt;&lt;span style=&quot;white-space: pre;&quot;&gt;&#x9;&lt;/span&gt;&lt;span style=&quot;white-space: pre;&quot;&gt;&#x9;&lt;/span&gt;.&lt;/div&gt;&lt;div&gt;&lt;span style=&quot;white-space: pre;&quot;&gt;&#x9;&lt;/span&gt;.&lt;span style=&quot;white-space: pre;&quot;&gt;&#x9;&lt;/span&gt;&lt;span style=&quot;white-space: pre;&quot;&gt;&#x9;&lt;/span&gt;&lt;span style=&quot;white-space: pre;&quot;&gt;&#x9;&lt;/span&gt;&lt;span style=&quot;white-space: pre;&quot;&gt;&#x9;&lt;/span&gt;.&lt;span style=&quot;white-space: pre;&quot;&gt;&#x9;&lt;/span&gt;&lt;span style=&quot;white-space: pre;&quot;&gt;&#x9;&lt;/span&gt;&lt;span style=&quot;white-space: pre;&quot;&gt;&#x9;&lt;/span&gt;&lt;span style=&quot;white-space: pre;&quot;&gt;&#x9;&lt;/span&gt;.&lt;/div&gt;&lt;div&gt;&lt;span style=&quot;white-space: pre;&quot;&gt;&#x9;&lt;/span&gt;.&lt;span style=&quot;white-space: pre;&quot;&gt;&#x9;&lt;/span&gt;&lt;span style=&quot;white-space: pre;&quot;&gt;&#x9;&lt;/span&gt;&lt;span style=&quot;white-space: pre;&quot;&gt;&#x9;&lt;/span&gt;&lt;span style=&quot;white-space: pre;&quot;&gt;&#x9;&lt;/span&gt;.&lt;span style=&quot;white-space: pre;&quot;&gt;&#x9;&lt;/span&gt;&lt;span style=&quot;white-space: pre;&quot;&gt;&#x9;&lt;/span&gt;&lt;span style=&quot;white-space: pre;&quot;&gt;&#x9;&lt;/span&gt;&lt;span style=&quot;white-space: pre;&quot;&gt;&#x9;&lt;/span&gt;.&lt;/div&gt;" style="text;strokeColor=none;fillColor=#B3B3B3;align=left;verticalAlign=middle;spacingLeft=4;spacingRight=4;overflow=hidden;points=[[0,0.5],[1,0.5]];portConstraint=eastwest;rotatable=0;whiteSpace=wrap;html=1;" vertex="1" parent="_hzz50pAHIIWiuJxTLdp-47">
          <mxGeometry y="60" width="310" height="70" as="geometry" />
        </mxCell>
        <mxCell id="_hzz50pAHIIWiuJxTLdp-50" value="Customer N | Feature 1..Feature N | Spend in X months" style="text;strokeColor=none;fillColor=#B3B3B3;align=left;verticalAlign=middle;spacingLeft=4;spacingRight=4;overflow=hidden;points=[[0,0.5],[1,0.5]];portConstraint=eastwest;rotatable=0;whiteSpace=wrap;html=1;" vertex="1" parent="_hzz50pAHIIWiuJxTLdp-47">
          <mxGeometry y="130" width="310" height="30" as="geometry" />
        </mxCell>
        <mxCell id="_hzz50pAHIIWiuJxTLdp-51" value="Training Set" style="swimlane;fontStyle=0;childLayout=stackLayout;horizontal=1;startSize=30;horizontalStack=0;resizeParent=1;resizeParentMax=0;resizeLast=0;collapsible=1;marginBottom=0;whiteSpace=wrap;html=1;fillColor=#99CCFF;" vertex="1" parent="1">
          <mxGeometry x="500" y="640" width="70" height="120" as="geometry" />
        </mxCell>
        <mxCell id="_hzz50pAHIIWiuJxTLdp-52" value="Row 1" style="text;strokeColor=none;fillColor=#B3B3B3;align=left;verticalAlign=middle;spacingLeft=4;spacingRight=4;overflow=hidden;points=[[0,0.5],[1,0.5]];portConstraint=eastwest;rotatable=0;whiteSpace=wrap;html=1;" vertex="1" parent="_hzz50pAHIIWiuJxTLdp-51">
          <mxGeometry y="30" width="70" height="30" as="geometry" />
        </mxCell>
        <mxCell id="_hzz50pAHIIWiuJxTLdp-53" value="Row 2" style="text;strokeColor=none;fillColor=#B3B3B3;align=left;verticalAlign=middle;spacingLeft=4;spacingRight=4;overflow=hidden;points=[[0,0.5],[1,0.5]];portConstraint=eastwest;rotatable=0;whiteSpace=wrap;html=1;" vertex="1" parent="_hzz50pAHIIWiuJxTLdp-51">
          <mxGeometry y="60" width="70" height="30" as="geometry" />
        </mxCell>
        <mxCell id="_hzz50pAHIIWiuJxTLdp-54" value="Row N" style="text;strokeColor=none;fillColor=#B3B3B3;align=left;verticalAlign=middle;spacingLeft=4;spacingRight=4;overflow=hidden;points=[[0,0.5],[1,0.5]];portConstraint=eastwest;rotatable=0;whiteSpace=wrap;html=1;" vertex="1" parent="_hzz50pAHIIWiuJxTLdp-51">
          <mxGeometry y="90" width="70" height="30" as="geometry" />
        </mxCell>
        <mxCell id="_hzz50pAHIIWiuJxTLdp-55" value="Testing Set" style="swimlane;fontStyle=0;childLayout=stackLayout;horizontal=1;startSize=30;horizontalStack=0;resizeParent=1;resizeParentMax=0;resizeLast=0;collapsible=1;marginBottom=0;whiteSpace=wrap;html=1;fillColor=#FFB570;" vertex="1" parent="1">
          <mxGeometry x="500" y="775" width="70" height="120" as="geometry" />
        </mxCell>
        <mxCell id="_hzz50pAHIIWiuJxTLdp-56" value="Row 1" style="text;strokeColor=none;fillColor=#B3B3B3;align=left;verticalAlign=middle;spacingLeft=4;spacingRight=4;overflow=hidden;points=[[0,0.5],[1,0.5]];portConstraint=eastwest;rotatable=0;whiteSpace=wrap;html=1;" vertex="1" parent="_hzz50pAHIIWiuJxTLdp-55">
          <mxGeometry y="30" width="70" height="30" as="geometry" />
        </mxCell>
        <mxCell id="_hzz50pAHIIWiuJxTLdp-57" value="Row 2" style="text;strokeColor=none;fillColor=#B3B3B3;align=left;verticalAlign=middle;spacingLeft=4;spacingRight=4;overflow=hidden;points=[[0,0.5],[1,0.5]];portConstraint=eastwest;rotatable=0;whiteSpace=wrap;html=1;" vertex="1" parent="_hzz50pAHIIWiuJxTLdp-55">
          <mxGeometry y="60" width="70" height="30" as="geometry" />
        </mxCell>
        <mxCell id="_hzz50pAHIIWiuJxTLdp-58" value="Row N" style="text;strokeColor=none;fillColor=#B3B3B3;align=left;verticalAlign=middle;spacingLeft=4;spacingRight=4;overflow=hidden;points=[[0,0.5],[1,0.5]];portConstraint=eastwest;rotatable=0;whiteSpace=wrap;html=1;" vertex="1" parent="_hzz50pAHIIWiuJxTLdp-55">
          <mxGeometry y="90" width="70" height="30" as="geometry" />
        </mxCell>
        <mxCell id="_hzz50pAHIIWiuJxTLdp-59" value="" style="endArrow=classic;html=1;rounded=0;exitX=1;exitY=0.5;exitDx=0;exitDy=0;entryX=0;entryY=0.5;entryDx=0;entryDy=0;" edge="1" parent="1" source="_hzz50pAHIIWiuJxTLdp-49" target="_hzz50pAHIIWiuJxTLdp-53">
          <mxGeometry width="50" height="50" relative="1" as="geometry">
            <mxPoint x="340" y="785" as="sourcePoint" />
            <mxPoint x="390" y="735" as="targetPoint" />
          </mxGeometry>
        </mxCell>
        <mxCell id="_hzz50pAHIIWiuJxTLdp-60" value="" style="endArrow=classic;html=1;rounded=0;exitX=1;exitY=0.5;exitDx=0;exitDy=0;entryX=0;entryY=0.5;entryDx=0;entryDy=0;" edge="1" parent="1" source="_hzz50pAHIIWiuJxTLdp-49" target="_hzz50pAHIIWiuJxTLdp-57">
          <mxGeometry width="50" height="50" relative="1" as="geometry">
            <mxPoint x="470" y="780" as="sourcePoint" />
            <mxPoint x="510" y="715" as="targetPoint" />
          </mxGeometry>
        </mxCell>
        <mxCell id="_hzz50pAHIIWiuJxTLdp-61" value="Data Set Customer Segment A" style="swimlane;fontStyle=0;childLayout=stackLayout;horizontal=1;startSize=30;horizontalStack=0;resizeParent=1;resizeParentMax=0;resizeLast=0;collapsible=1;marginBottom=0;whiteSpace=wrap;html=1;shadow=0;fillColor=#47C2FF;" vertex="1" parent="1">
          <mxGeometry x="150" y="115" width="310" height="160" as="geometry" />
        </mxCell>
        <mxCell id="_hzz50pAHIIWiuJxTLdp-62" value="Customer 1 | Feature 1..Feature N | Spend in X months" style="text;strokeColor=none;fillColor=#B3B3B3;align=left;verticalAlign=middle;spacingLeft=4;spacingRight=4;overflow=hidden;points=[[0,0.5],[1,0.5]];portConstraint=eastwest;rotatable=0;whiteSpace=wrap;html=1;" vertex="1" parent="_hzz50pAHIIWiuJxTLdp-61">
          <mxGeometry y="30" width="310" height="30" as="geometry" />
        </mxCell>
        <mxCell id="_hzz50pAHIIWiuJxTLdp-63" value="Customer 2 | Feature 1..Feature N | Spend in X months&lt;div&gt;&lt;span style=&quot;white-space: pre;&quot;&gt;&#x9;&lt;/span&gt;.&lt;span style=&quot;white-space: pre;&quot;&gt;&#x9;&lt;/span&gt;&lt;span style=&quot;white-space: pre;&quot;&gt;&#x9;&lt;/span&gt;&lt;span style=&quot;white-space: pre;&quot;&gt;&#x9;&lt;/span&gt;&lt;span style=&quot;white-space: pre;&quot;&gt;&#x9;&lt;/span&gt;.&lt;span style=&quot;white-space: pre;&quot;&gt;&#x9;&lt;/span&gt;&lt;span style=&quot;white-space: pre;&quot;&gt;&#x9;&lt;/span&gt;&lt;span style=&quot;white-space: pre;&quot;&gt;&#x9;&lt;/span&gt;&lt;span style=&quot;white-space: pre;&quot;&gt;&#x9;&lt;/span&gt;.&lt;/div&gt;&lt;div&gt;&lt;span style=&quot;white-space: pre;&quot;&gt;&#x9;&lt;/span&gt;.&lt;span style=&quot;white-space: pre;&quot;&gt;&#x9;&lt;/span&gt;&lt;span style=&quot;white-space: pre;&quot;&gt;&#x9;&lt;/span&gt;&lt;span style=&quot;white-space: pre;&quot;&gt;&#x9;&lt;/span&gt;&lt;span style=&quot;white-space: pre;&quot;&gt;&#x9;&lt;/span&gt;.&lt;span style=&quot;white-space: pre;&quot;&gt;&#x9;&lt;/span&gt;&lt;span style=&quot;white-space: pre;&quot;&gt;&#x9;&lt;/span&gt;&lt;span style=&quot;white-space: pre;&quot;&gt;&#x9;&lt;/span&gt;&lt;span style=&quot;white-space: pre;&quot;&gt;&#x9;&lt;/span&gt;.&lt;/div&gt;&lt;div&gt;&lt;span style=&quot;white-space: pre;&quot;&gt;&#x9;&lt;/span&gt;.&lt;span style=&quot;white-space: pre;&quot;&gt;&#x9;&lt;/span&gt;&lt;span style=&quot;white-space: pre;&quot;&gt;&#x9;&lt;/span&gt;&lt;span style=&quot;white-space: pre;&quot;&gt;&#x9;&lt;/span&gt;&lt;span style=&quot;white-space: pre;&quot;&gt;&#x9;&lt;/span&gt;.&lt;span style=&quot;white-space: pre;&quot;&gt;&#x9;&lt;/span&gt;&lt;span style=&quot;white-space: pre;&quot;&gt;&#x9;&lt;/span&gt;&lt;span style=&quot;white-space: pre;&quot;&gt;&#x9;&lt;/span&gt;&lt;span style=&quot;white-space: pre;&quot;&gt;&#x9;&lt;/span&gt;.&lt;/div&gt;" style="text;strokeColor=none;fillColor=#B3B3B3;align=left;verticalAlign=middle;spacingLeft=4;spacingRight=4;overflow=hidden;points=[[0,0.5],[1,0.5]];portConstraint=eastwest;rotatable=0;whiteSpace=wrap;html=1;" vertex="1" parent="_hzz50pAHIIWiuJxTLdp-61">
          <mxGeometry y="60" width="310" height="70" as="geometry" />
        </mxCell>
        <mxCell id="_hzz50pAHIIWiuJxTLdp-64" value="Customer N | Feature 1..Feature N | Spend in X months" style="text;strokeColor=none;fillColor=#B3B3B3;align=left;verticalAlign=middle;spacingLeft=4;spacingRight=4;overflow=hidden;points=[[0,0.5],[1,0.5]];portConstraint=eastwest;rotatable=0;whiteSpace=wrap;html=1;" vertex="1" parent="_hzz50pAHIIWiuJxTLdp-61">
          <mxGeometry y="130" width="310" height="30" as="geometry" />
        </mxCell>
        <mxCell id="_hzz50pAHIIWiuJxTLdp-65" value="Training Set" style="swimlane;fontStyle=0;childLayout=stackLayout;horizontal=1;startSize=30;horizontalStack=0;resizeParent=1;resizeParentMax=0;resizeLast=0;collapsible=1;marginBottom=0;whiteSpace=wrap;html=1;fillColor=#99CCFF;" vertex="1" parent="1">
          <mxGeometry x="500" y="70" width="70" height="120" as="geometry" />
        </mxCell>
        <mxCell id="_hzz50pAHIIWiuJxTLdp-66" value="Row 1" style="text;strokeColor=none;fillColor=#B3B3B3;align=left;verticalAlign=middle;spacingLeft=4;spacingRight=4;overflow=hidden;points=[[0,0.5],[1,0.5]];portConstraint=eastwest;rotatable=0;whiteSpace=wrap;html=1;" vertex="1" parent="_hzz50pAHIIWiuJxTLdp-65">
          <mxGeometry y="30" width="70" height="30" as="geometry" />
        </mxCell>
        <mxCell id="_hzz50pAHIIWiuJxTLdp-67" value="Row 2" style="text;strokeColor=none;fillColor=#B3B3B3;align=left;verticalAlign=middle;spacingLeft=4;spacingRight=4;overflow=hidden;points=[[0,0.5],[1,0.5]];portConstraint=eastwest;rotatable=0;whiteSpace=wrap;html=1;" vertex="1" parent="_hzz50pAHIIWiuJxTLdp-65">
          <mxGeometry y="60" width="70" height="30" as="geometry" />
        </mxCell>
        <mxCell id="_hzz50pAHIIWiuJxTLdp-68" value="Row N" style="text;strokeColor=none;fillColor=#B3B3B3;align=left;verticalAlign=middle;spacingLeft=4;spacingRight=4;overflow=hidden;points=[[0,0.5],[1,0.5]];portConstraint=eastwest;rotatable=0;whiteSpace=wrap;html=1;" vertex="1" parent="_hzz50pAHIIWiuJxTLdp-65">
          <mxGeometry y="90" width="70" height="30" as="geometry" />
        </mxCell>
        <mxCell id="_hzz50pAHIIWiuJxTLdp-69" value="Testing Set" style="swimlane;fontStyle=0;childLayout=stackLayout;horizontal=1;startSize=30;horizontalStack=0;resizeParent=1;resizeParentMax=0;resizeLast=0;collapsible=1;marginBottom=0;whiteSpace=wrap;html=1;fillColor=#FFB570;" vertex="1" parent="1">
          <mxGeometry x="500" y="215" width="70" height="120" as="geometry" />
        </mxCell>
        <mxCell id="_hzz50pAHIIWiuJxTLdp-70" value="Row 1" style="text;strokeColor=none;fillColor=#B3B3B3;align=left;verticalAlign=middle;spacingLeft=4;spacingRight=4;overflow=hidden;points=[[0,0.5],[1,0.5]];portConstraint=eastwest;rotatable=0;whiteSpace=wrap;html=1;" vertex="1" parent="_hzz50pAHIIWiuJxTLdp-69">
          <mxGeometry y="30" width="70" height="30" as="geometry" />
        </mxCell>
        <mxCell id="_hzz50pAHIIWiuJxTLdp-71" value="Row 2" style="text;strokeColor=none;fillColor=#B3B3B3;align=left;verticalAlign=middle;spacingLeft=4;spacingRight=4;overflow=hidden;points=[[0,0.5],[1,0.5]];portConstraint=eastwest;rotatable=0;whiteSpace=wrap;html=1;" vertex="1" parent="_hzz50pAHIIWiuJxTLdp-69">
          <mxGeometry y="60" width="70" height="30" as="geometry" />
        </mxCell>
        <mxCell id="_hzz50pAHIIWiuJxTLdp-72" value="Row N" style="text;strokeColor=none;fillColor=#B3B3B3;align=left;verticalAlign=middle;spacingLeft=4;spacingRight=4;overflow=hidden;points=[[0,0.5],[1,0.5]];portConstraint=eastwest;rotatable=0;whiteSpace=wrap;html=1;" vertex="1" parent="_hzz50pAHIIWiuJxTLdp-69">
          <mxGeometry y="90" width="70" height="30" as="geometry" />
        </mxCell>
        <mxCell id="_hzz50pAHIIWiuJxTLdp-73" value="" style="endArrow=classic;html=1;rounded=0;exitX=1;exitY=0.5;exitDx=0;exitDy=0;entryX=0;entryY=0.5;entryDx=0;entryDy=0;" edge="1" parent="1" source="_hzz50pAHIIWiuJxTLdp-63" target="_hzz50pAHIIWiuJxTLdp-67">
          <mxGeometry width="50" height="50" relative="1" as="geometry">
            <mxPoint x="340" y="225" as="sourcePoint" />
            <mxPoint x="390" y="175" as="targetPoint" />
          </mxGeometry>
        </mxCell>
        <mxCell id="_hzz50pAHIIWiuJxTLdp-74" value="" style="endArrow=classic;html=1;rounded=0;exitX=1;exitY=0.5;exitDx=0;exitDy=0;entryX=0;entryY=0.5;entryDx=0;entryDy=0;" edge="1" parent="1" source="_hzz50pAHIIWiuJxTLdp-63" target="_hzz50pAHIIWiuJxTLdp-71">
          <mxGeometry width="50" height="50" relative="1" as="geometry">
            <mxPoint x="470" y="220" as="sourcePoint" />
            <mxPoint x="510" y="155" as="targetPoint" />
          </mxGeometry>
        </mxCell>
        <mxCell id="_hzz50pAHIIWiuJxTLdp-81" value="" style="rhombus;whiteSpace=wrap;html=1;fillColor=#3399FF;" vertex="1" parent="1">
          <mxGeometry x="670" y="80" width="80" height="80" as="geometry" />
        </mxCell>
        <mxCell id="_hzz50pAHIIWiuJxTLdp-82" value="" style="rhombus;whiteSpace=wrap;html=1;fillColor=#3399FF;" vertex="1" parent="1">
          <mxGeometry x="670" y="100" width="80" height="80" as="geometry" />
        </mxCell>
        <mxCell id="_hzz50pAHIIWiuJxTLdp-83" value="" style="rhombus;whiteSpace=wrap;html=1;fillColor=#3399FF;" vertex="1" parent="1">
          <mxGeometry x="670" y="120" width="80" height="80" as="geometry" />
        </mxCell>
        <mxCell id="_hzz50pAHIIWiuJxTLdp-84" value="" style="rhombus;whiteSpace=wrap;html=1;fillColor=#3399FF;" vertex="1" parent="1">
          <mxGeometry x="670" y="345" width="80" height="80" as="geometry" />
        </mxCell>
        <mxCell id="_hzz50pAHIIWiuJxTLdp-85" value="" style="rhombus;whiteSpace=wrap;html=1;fillColor=#3399FF;" vertex="1" parent="1">
          <mxGeometry x="670" y="365" width="80" height="80" as="geometry" />
        </mxCell>
        <mxCell id="_hzz50pAHIIWiuJxTLdp-86" value="" style="rhombus;whiteSpace=wrap;html=1;fillColor=#3399FF;" vertex="1" parent="1">
          <mxGeometry x="670" y="385" width="80" height="80" as="geometry" />
        </mxCell>
        <mxCell id="_hzz50pAHIIWiuJxTLdp-87" value="" style="rhombus;whiteSpace=wrap;html=1;fillColor=#3399FF;" vertex="1" parent="1">
          <mxGeometry x="670" y="640" width="80" height="80" as="geometry" />
        </mxCell>
        <mxCell id="_hzz50pAHIIWiuJxTLdp-88" value="" style="rhombus;whiteSpace=wrap;html=1;fillColor=#3399FF;" vertex="1" parent="1">
          <mxGeometry x="670" y="660" width="80" height="80" as="geometry" />
        </mxCell>
        <mxCell id="_hzz50pAHIIWiuJxTLdp-89" value="" style="rhombus;whiteSpace=wrap;html=1;fillColor=#3399FF;" vertex="1" parent="1">
          <mxGeometry x="670" y="680" width="80" height="80" as="geometry" />
        </mxCell>
        <mxCell id="_hzz50pAHIIWiuJxTLdp-90" value="" style="endArrow=classic;html=1;rounded=0;exitX=1;exitY=0.5;exitDx=0;exitDy=0;" edge="1" parent="1" source="_hzz50pAHIIWiuJxTLdp-67">
          <mxGeometry width="50" height="50" relative="1" as="geometry">
            <mxPoint x="840" y="520" as="sourcePoint" />
            <mxPoint x="660" y="145" as="targetPoint" />
          </mxGeometry>
        </mxCell>
        <mxCell id="_hzz50pAHIIWiuJxTLdp-91" value="" style="endArrow=classic;html=1;rounded=0;exitX=1;exitY=0.5;exitDx=0;exitDy=0;" edge="1" parent="1" source="_hzz50pAHIIWiuJxTLdp-39">
          <mxGeometry width="50" height="50" relative="1" as="geometry">
            <mxPoint x="570" y="410" as="sourcePoint" />
            <mxPoint x="660" y="420" as="targetPoint" />
          </mxGeometry>
        </mxCell>
        <mxCell id="_hzz50pAHIIWiuJxTLdp-92" value="" style="endArrow=classic;html=1;rounded=0;exitX=1;exitY=0.5;exitDx=0;exitDy=0;" edge="1" parent="1" source="_hzz50pAHIIWiuJxTLdp-53">
          <mxGeometry width="50" height="50" relative="1" as="geometry">
            <mxPoint x="580" y="710" as="sourcePoint" />
            <mxPoint x="660" y="715" as="targetPoint" />
          </mxGeometry>
        </mxCell>
        <mxCell id="_hzz50pAHIIWiuJxTLdp-97" value="" style="endArrow=none;dashed=1;html=1;rounded=0;exitX=1;exitY=0.5;exitDx=0;exitDy=0;" edge="1" parent="1" source="_hzz50pAHIIWiuJxTLdp-57">
          <mxGeometry width="50" height="50" relative="1" as="geometry">
            <mxPoint x="840" y="640" as="sourcePoint" />
            <mxPoint x="710" y="770" as="targetPoint" />
            <Array as="points">
              <mxPoint x="710" y="850" />
            </Array>
          </mxGeometry>
        </mxCell>
        <mxCell id="_hzz50pAHIIWiuJxTLdp-98" value="" style="endArrow=none;dashed=1;html=1;rounded=0;exitX=1;exitY=0.5;exitDx=0;exitDy=0;" edge="1" parent="1">
          <mxGeometry width="50" height="50" relative="1" as="geometry">
            <mxPoint x="570" y="562.5" as="sourcePoint" />
            <mxPoint x="710" y="482.5" as="targetPoint" />
            <Array as="points">
              <mxPoint x="710" y="562.5" />
            </Array>
          </mxGeometry>
        </mxCell>
        <mxCell id="_hzz50pAHIIWiuJxTLdp-99" value="" style="endArrow=none;dashed=1;html=1;rounded=0;exitX=1;exitY=0.5;exitDx=0;exitDy=0;" edge="1" parent="1">
          <mxGeometry width="50" height="50" relative="1" as="geometry">
            <mxPoint x="570" y="295" as="sourcePoint" />
            <mxPoint x="710" y="215" as="targetPoint" />
            <Array as="points">
              <mxPoint x="710" y="295" />
            </Array>
          </mxGeometry>
        </mxCell>
        <mxCell id="_hzz50pAHIIWiuJxTLdp-101" value="" style="endArrow=classic;html=1;rounded=0;" edge="1" parent="1">
          <mxGeometry width="50" height="50" relative="1" as="geometry">
            <mxPoint x="770" y="720" as="sourcePoint" />
            <mxPoint x="-300" y="600" as="targetPoint" />
            <Array as="points">
              <mxPoint x="780" y="720" />
              <mxPoint x="780" y="920" />
              <mxPoint x="-300" y="920" />
            </Array>
          </mxGeometry>
        </mxCell>
        <mxCell id="_hzz50pAHIIWiuJxTLdp-102" value="" style="endArrow=classic;html=1;rounded=0;" edge="1" parent="1">
          <mxGeometry width="50" height="50" relative="1" as="geometry">
            <mxPoint x="770" y="400" as="sourcePoint" />
            <mxPoint x="-310" y="600" as="targetPoint" />
            <Array as="points">
              <mxPoint x="790" y="400" />
              <mxPoint x="790" y="930" />
              <mxPoint x="-310" y="930" />
            </Array>
          </mxGeometry>
        </mxCell>
        <mxCell id="_hzz50pAHIIWiuJxTLdp-103" value="" style="endArrow=classic;html=1;rounded=0;" edge="1" parent="1">
          <mxGeometry width="50" height="50" relative="1" as="geometry">
            <mxPoint x="770" y="150" as="sourcePoint" />
            <mxPoint x="-320" y="600" as="targetPoint" />
            <Array as="points">
              <mxPoint x="770" y="150" />
              <mxPoint x="800" y="150" />
              <mxPoint x="800" y="940" />
              <mxPoint x="-320" y="940" />
            </Array>
          </mxGeometry>
        </mxCell>
        <mxCell id="_hzz50pAHIIWiuJxTLdp-104" value="" style="rhombus;whiteSpace=wrap;html=1;fillColor=#97D077;" vertex="1" parent="1">
          <mxGeometry x="-355" y="465" width="80" height="80" as="geometry" />
        </mxCell>
        <mxCell id="_hzz50pAHIIWiuJxTLdp-105" value="" style="rhombus;whiteSpace=wrap;html=1;fillColor=#97D077;" vertex="1" parent="1">
          <mxGeometry x="-355" y="485" width="80" height="80" as="geometry" />
        </mxCell>
        <mxCell id="_hzz50pAHIIWiuJxTLdp-106" value="" style="rhombus;whiteSpace=wrap;html=1;fillColor=#97D077;" vertex="1" parent="1">
          <mxGeometry x="-355" y="515" width="80" height="80" as="geometry" />
        </mxCell>
        <mxCell id="_hzz50pAHIIWiuJxTLdp-112" value="Data Set Customer Segment A" style="swimlane;fontStyle=0;childLayout=stackLayout;horizontal=1;startSize=30;horizontalStack=0;resizeParent=1;resizeParentMax=0;resizeLast=0;collapsible=1;marginBottom=0;whiteSpace=wrap;html=1;shadow=0;fillColor=#47C2FF;" vertex="1" parent="1">
          <mxGeometry x="160" y="125" width="310" height="160" as="geometry" />
        </mxCell>
        <mxCell id="_hzz50pAHIIWiuJxTLdp-113" value="Customer 1 | Feature 1..Feature N | Spend in X months" style="text;strokeColor=none;fillColor=#B3B3B3;align=left;verticalAlign=middle;spacingLeft=4;spacingRight=4;overflow=hidden;points=[[0,0.5],[1,0.5]];portConstraint=eastwest;rotatable=0;whiteSpace=wrap;html=1;" vertex="1" parent="_hzz50pAHIIWiuJxTLdp-112">
          <mxGeometry y="30" width="310" height="30" as="geometry" />
        </mxCell>
        <mxCell id="_hzz50pAHIIWiuJxTLdp-114" value="Customer 2 | Feature 1..Feature N | Spend in X months&lt;div&gt;&lt;span style=&quot;white-space: pre;&quot;&gt;&#x9;&lt;/span&gt;.&lt;span style=&quot;white-space: pre;&quot;&gt;&#x9;&lt;/span&gt;&lt;span style=&quot;white-space: pre;&quot;&gt;&#x9;&lt;/span&gt;&lt;span style=&quot;white-space: pre;&quot;&gt;&#x9;&lt;/span&gt;&lt;span style=&quot;white-space: pre;&quot;&gt;&#x9;&lt;/span&gt;.&lt;span style=&quot;white-space: pre;&quot;&gt;&#x9;&lt;/span&gt;&lt;span style=&quot;white-space: pre;&quot;&gt;&#x9;&lt;/span&gt;&lt;span style=&quot;white-space: pre;&quot;&gt;&#x9;&lt;/span&gt;&lt;span style=&quot;white-space: pre;&quot;&gt;&#x9;&lt;/span&gt;.&lt;/div&gt;&lt;div&gt;&lt;span style=&quot;white-space: pre;&quot;&gt;&#x9;&lt;/span&gt;.&lt;span style=&quot;white-space: pre;&quot;&gt;&#x9;&lt;/span&gt;&lt;span style=&quot;white-space: pre;&quot;&gt;&#x9;&lt;/span&gt;&lt;span style=&quot;white-space: pre;&quot;&gt;&#x9;&lt;/span&gt;&lt;span style=&quot;white-space: pre;&quot;&gt;&#x9;&lt;/span&gt;.&lt;span style=&quot;white-space: pre;&quot;&gt;&#x9;&lt;/span&gt;&lt;span style=&quot;white-space: pre;&quot;&gt;&#x9;&lt;/span&gt;&lt;span style=&quot;white-space: pre;&quot;&gt;&#x9;&lt;/span&gt;&lt;span style=&quot;white-space: pre;&quot;&gt;&#x9;&lt;/span&gt;.&lt;/div&gt;&lt;div&gt;&lt;span style=&quot;white-space: pre;&quot;&gt;&#x9;&lt;/span&gt;.&lt;span style=&quot;white-space: pre;&quot;&gt;&#x9;&lt;/span&gt;&lt;span style=&quot;white-space: pre;&quot;&gt;&#x9;&lt;/span&gt;&lt;span style=&quot;white-space: pre;&quot;&gt;&#x9;&lt;/span&gt;&lt;span style=&quot;white-space: pre;&quot;&gt;&#x9;&lt;/span&gt;.&lt;span style=&quot;white-space: pre;&quot;&gt;&#x9;&lt;/span&gt;&lt;span style=&quot;white-space: pre;&quot;&gt;&#x9;&lt;/span&gt;&lt;span style=&quot;white-space: pre;&quot;&gt;&#x9;&lt;/span&gt;&lt;span style=&quot;white-space: pre;&quot;&gt;&#x9;&lt;/span&gt;.&lt;/div&gt;" style="text;strokeColor=none;fillColor=#B3B3B3;align=left;verticalAlign=middle;spacingLeft=4;spacingRight=4;overflow=hidden;points=[[0,0.5],[1,0.5]];portConstraint=eastwest;rotatable=0;whiteSpace=wrap;html=1;" vertex="1" parent="_hzz50pAHIIWiuJxTLdp-112">
          <mxGeometry y="60" width="310" height="70" as="geometry" />
        </mxCell>
        <mxCell id="_hzz50pAHIIWiuJxTLdp-115" value="Customer N | Feature 1..Feature N | Spend in X months" style="text;strokeColor=none;fillColor=#B3B3B3;align=left;verticalAlign=middle;spacingLeft=4;spacingRight=4;overflow=hidden;points=[[0,0.5],[1,0.5]];portConstraint=eastwest;rotatable=0;whiteSpace=wrap;html=1;" vertex="1" parent="_hzz50pAHIIWiuJxTLdp-112">
          <mxGeometry y="130" width="310" height="30" as="geometry" />
        </mxCell>
        <mxCell id="_hzz50pAHIIWiuJxTLdp-116" value="Data Set Customer Segment A" style="swimlane;fontStyle=0;childLayout=stackLayout;horizontal=1;startSize=30;horizontalStack=0;resizeParent=1;resizeParentMax=0;resizeLast=0;collapsible=1;marginBottom=0;whiteSpace=wrap;html=1;shadow=0;fillColor=#47C2FF;" vertex="1" parent="1">
          <mxGeometry x="160" y="125" width="310" height="160" as="geometry" />
        </mxCell>
        <mxCell id="_hzz50pAHIIWiuJxTLdp-117" value="Customer 1 | Feature 1..Feature N | Spend in X months" style="text;strokeColor=none;fillColor=#B3B3B3;align=left;verticalAlign=middle;spacingLeft=4;spacingRight=4;overflow=hidden;points=[[0,0.5],[1,0.5]];portConstraint=eastwest;rotatable=0;whiteSpace=wrap;html=1;" vertex="1" parent="_hzz50pAHIIWiuJxTLdp-116">
          <mxGeometry y="30" width="310" height="30" as="geometry" />
        </mxCell>
        <mxCell id="_hzz50pAHIIWiuJxTLdp-118" value="Customer 2 | Feature 1..Feature N | Spend in X months&lt;div&gt;&lt;span style=&quot;white-space: pre;&quot;&gt;&#x9;&lt;/span&gt;.&lt;span style=&quot;white-space: pre;&quot;&gt;&#x9;&lt;/span&gt;&lt;span style=&quot;white-space: pre;&quot;&gt;&#x9;&lt;/span&gt;&lt;span style=&quot;white-space: pre;&quot;&gt;&#x9;&lt;/span&gt;&lt;span style=&quot;white-space: pre;&quot;&gt;&#x9;&lt;/span&gt;.&lt;span style=&quot;white-space: pre;&quot;&gt;&#x9;&lt;/span&gt;&lt;span style=&quot;white-space: pre;&quot;&gt;&#x9;&lt;/span&gt;&lt;span style=&quot;white-space: pre;&quot;&gt;&#x9;&lt;/span&gt;&lt;span style=&quot;white-space: pre;&quot;&gt;&#x9;&lt;/span&gt;.&lt;/div&gt;&lt;div&gt;&lt;span style=&quot;white-space: pre;&quot;&gt;&#x9;&lt;/span&gt;.&lt;span style=&quot;white-space: pre;&quot;&gt;&#x9;&lt;/span&gt;&lt;span style=&quot;white-space: pre;&quot;&gt;&#x9;&lt;/span&gt;&lt;span style=&quot;white-space: pre;&quot;&gt;&#x9;&lt;/span&gt;&lt;span style=&quot;white-space: pre;&quot;&gt;&#x9;&lt;/span&gt;.&lt;span style=&quot;white-space: pre;&quot;&gt;&#x9;&lt;/span&gt;&lt;span style=&quot;white-space: pre;&quot;&gt;&#x9;&lt;/span&gt;&lt;span style=&quot;white-space: pre;&quot;&gt;&#x9;&lt;/span&gt;&lt;span style=&quot;white-space: pre;&quot;&gt;&#x9;&lt;/span&gt;.&lt;/div&gt;&lt;div&gt;&lt;span style=&quot;white-space: pre;&quot;&gt;&#x9;&lt;/span&gt;.&lt;span style=&quot;white-space: pre;&quot;&gt;&#x9;&lt;/span&gt;&lt;span style=&quot;white-space: pre;&quot;&gt;&#x9;&lt;/span&gt;&lt;span style=&quot;white-space: pre;&quot;&gt;&#x9;&lt;/span&gt;&lt;span style=&quot;white-space: pre;&quot;&gt;&#x9;&lt;/span&gt;.&lt;span style=&quot;white-space: pre;&quot;&gt;&#x9;&lt;/span&gt;&lt;span style=&quot;white-space: pre;&quot;&gt;&#x9;&lt;/span&gt;&lt;span style=&quot;white-space: pre;&quot;&gt;&#x9;&lt;/span&gt;&lt;span style=&quot;white-space: pre;&quot;&gt;&#x9;&lt;/span&gt;.&lt;/div&gt;" style="text;strokeColor=none;fillColor=#B3B3B3;align=left;verticalAlign=middle;spacingLeft=4;spacingRight=4;overflow=hidden;points=[[0,0.5],[1,0.5]];portConstraint=eastwest;rotatable=0;whiteSpace=wrap;html=1;" vertex="1" parent="_hzz50pAHIIWiuJxTLdp-116">
          <mxGeometry y="60" width="310" height="70" as="geometry" />
        </mxCell>
        <mxCell id="_hzz50pAHIIWiuJxTLdp-119" value="Customer N | Feature 1..Feature N | Spend in X months" style="text;strokeColor=none;fillColor=#B3B3B3;align=left;verticalAlign=middle;spacingLeft=4;spacingRight=4;overflow=hidden;points=[[0,0.5],[1,0.5]];portConstraint=eastwest;rotatable=0;whiteSpace=wrap;html=1;" vertex="1" parent="_hzz50pAHIIWiuJxTLdp-116">
          <mxGeometry y="130" width="310" height="30" as="geometry" />
        </mxCell>
        <mxCell id="_hzz50pAHIIWiuJxTLdp-120" value="Data Set Customer Segment A" style="swimlane;fontStyle=0;childLayout=stackLayout;horizontal=1;startSize=30;horizontalStack=0;resizeParent=1;resizeParentMax=0;resizeLast=0;collapsible=1;marginBottom=0;whiteSpace=wrap;html=1;shadow=0;fillColor=#47C2FF;" vertex="1" parent="1">
          <mxGeometry x="170" y="135" width="310" height="160" as="geometry" />
        </mxCell>
        <mxCell id="_hzz50pAHIIWiuJxTLdp-121" value="Customer 1 | Feature 1..Feature N | Spend in X months" style="text;strokeColor=none;fillColor=#B3B3B3;align=left;verticalAlign=middle;spacingLeft=4;spacingRight=4;overflow=hidden;points=[[0,0.5],[1,0.5]];portConstraint=eastwest;rotatable=0;whiteSpace=wrap;html=1;" vertex="1" parent="_hzz50pAHIIWiuJxTLdp-120">
          <mxGeometry y="30" width="310" height="30" as="geometry" />
        </mxCell>
        <mxCell id="_hzz50pAHIIWiuJxTLdp-122" value="Customer 2 | Feature 1..Feature N | Spend in X months&lt;div&gt;&lt;span style=&quot;white-space: pre;&quot;&gt;&#x9;&lt;/span&gt;.&lt;span style=&quot;white-space: pre;&quot;&gt;&#x9;&lt;/span&gt;&lt;span style=&quot;white-space: pre;&quot;&gt;&#x9;&lt;/span&gt;&lt;span style=&quot;white-space: pre;&quot;&gt;&#x9;&lt;/span&gt;&lt;span style=&quot;white-space: pre;&quot;&gt;&#x9;&lt;/span&gt;.&lt;span style=&quot;white-space: pre;&quot;&gt;&#x9;&lt;/span&gt;&lt;span style=&quot;white-space: pre;&quot;&gt;&#x9;&lt;/span&gt;&lt;span style=&quot;white-space: pre;&quot;&gt;&#x9;&lt;/span&gt;&lt;span style=&quot;white-space: pre;&quot;&gt;&#x9;&lt;/span&gt;.&lt;/div&gt;&lt;div&gt;&lt;span style=&quot;white-space: pre;&quot;&gt;&#x9;&lt;/span&gt;.&lt;span style=&quot;white-space: pre;&quot;&gt;&#x9;&lt;/span&gt;&lt;span style=&quot;white-space: pre;&quot;&gt;&#x9;&lt;/span&gt;&lt;span style=&quot;white-space: pre;&quot;&gt;&#x9;&lt;/span&gt;&lt;span style=&quot;white-space: pre;&quot;&gt;&#x9;&lt;/span&gt;.&lt;span style=&quot;white-space: pre;&quot;&gt;&#x9;&lt;/span&gt;&lt;span style=&quot;white-space: pre;&quot;&gt;&#x9;&lt;/span&gt;&lt;span style=&quot;white-space: pre;&quot;&gt;&#x9;&lt;/span&gt;&lt;span style=&quot;white-space: pre;&quot;&gt;&#x9;&lt;/span&gt;.&lt;/div&gt;&lt;div&gt;&lt;span style=&quot;white-space: pre;&quot;&gt;&#x9;&lt;/span&gt;.&lt;span style=&quot;white-space: pre;&quot;&gt;&#x9;&lt;/span&gt;&lt;span style=&quot;white-space: pre;&quot;&gt;&#x9;&lt;/span&gt;&lt;span style=&quot;white-space: pre;&quot;&gt;&#x9;&lt;/span&gt;&lt;span style=&quot;white-space: pre;&quot;&gt;&#x9;&lt;/span&gt;.&lt;span style=&quot;white-space: pre;&quot;&gt;&#x9;&lt;/span&gt;&lt;span style=&quot;white-space: pre;&quot;&gt;&#x9;&lt;/span&gt;&lt;span style=&quot;white-space: pre;&quot;&gt;&#x9;&lt;/span&gt;&lt;span style=&quot;white-space: pre;&quot;&gt;&#x9;&lt;/span&gt;.&lt;/div&gt;" style="text;strokeColor=none;fillColor=#B3B3B3;align=left;verticalAlign=middle;spacingLeft=4;spacingRight=4;overflow=hidden;points=[[0,0.5],[1,0.5]];portConstraint=eastwest;rotatable=0;whiteSpace=wrap;html=1;" vertex="1" parent="_hzz50pAHIIWiuJxTLdp-120">
          <mxGeometry y="60" width="310" height="70" as="geometry" />
        </mxCell>
        <mxCell id="_hzz50pAHIIWiuJxTLdp-123" value="Customer N | Feature 1..Feature N | Spend in X months" style="text;strokeColor=none;fillColor=#B3B3B3;align=left;verticalAlign=middle;spacingLeft=4;spacingRight=4;overflow=hidden;points=[[0,0.5],[1,0.5]];portConstraint=eastwest;rotatable=0;whiteSpace=wrap;html=1;" vertex="1" parent="_hzz50pAHIIWiuJxTLdp-120">
          <mxGeometry y="130" width="310" height="30" as="geometry" />
        </mxCell>
        <mxCell id="_hzz50pAHIIWiuJxTLdp-124" value="Data Set Customer Segment B" style="swimlane;fontStyle=0;childLayout=stackLayout;horizontal=1;startSize=30;horizontalStack=0;resizeParent=1;resizeParentMax=0;resizeLast=0;collapsible=1;marginBottom=0;whiteSpace=wrap;html=1;fillColor=#47C2FF;" vertex="1" parent="1">
          <mxGeometry x="160" y="400" width="310" height="160" as="geometry" />
        </mxCell>
        <mxCell id="_hzz50pAHIIWiuJxTLdp-125" value="Customer 1 | Feature 1..Feature N | Spend in X months" style="text;strokeColor=none;fillColor=#B3B3B3;align=left;verticalAlign=middle;spacingLeft=4;spacingRight=4;overflow=hidden;points=[[0,0.5],[1,0.5]];portConstraint=eastwest;rotatable=0;whiteSpace=wrap;html=1;" vertex="1" parent="_hzz50pAHIIWiuJxTLdp-124">
          <mxGeometry y="30" width="310" height="30" as="geometry" />
        </mxCell>
        <mxCell id="_hzz50pAHIIWiuJxTLdp-126" value="Customer 2 | Feature 1..Feature N | Spend in X months&lt;div&gt;&lt;span style=&quot;white-space: pre;&quot;&gt;&#x9;&lt;/span&gt;.&lt;span style=&quot;white-space: pre;&quot;&gt;&#x9;&lt;/span&gt;&lt;span style=&quot;white-space: pre;&quot;&gt;&#x9;&lt;/span&gt;&lt;span style=&quot;white-space: pre;&quot;&gt;&#x9;&lt;/span&gt;&lt;span style=&quot;white-space: pre;&quot;&gt;&#x9;&lt;/span&gt;.&lt;span style=&quot;white-space: pre;&quot;&gt;&#x9;&lt;/span&gt;&lt;span style=&quot;white-space: pre;&quot;&gt;&#x9;&lt;/span&gt;&lt;span style=&quot;white-space: pre;&quot;&gt;&#x9;&lt;/span&gt;&lt;span style=&quot;white-space: pre;&quot;&gt;&#x9;&lt;/span&gt;.&lt;/div&gt;&lt;div&gt;&lt;span style=&quot;white-space: pre;&quot;&gt;&#x9;&lt;/span&gt;.&lt;span style=&quot;white-space: pre;&quot;&gt;&#x9;&lt;/span&gt;&lt;span style=&quot;white-space: pre;&quot;&gt;&#x9;&lt;/span&gt;&lt;span style=&quot;white-space: pre;&quot;&gt;&#x9;&lt;/span&gt;&lt;span style=&quot;white-space: pre;&quot;&gt;&#x9;&lt;/span&gt;.&lt;span style=&quot;white-space: pre;&quot;&gt;&#x9;&lt;/span&gt;&lt;span style=&quot;white-space: pre;&quot;&gt;&#x9;&lt;/span&gt;&lt;span style=&quot;white-space: pre;&quot;&gt;&#x9;&lt;/span&gt;&lt;span style=&quot;white-space: pre;&quot;&gt;&#x9;&lt;/span&gt;.&lt;/div&gt;&lt;div&gt;&lt;span style=&quot;white-space: pre;&quot;&gt;&#x9;&lt;/span&gt;.&lt;span style=&quot;white-space: pre;&quot;&gt;&#x9;&lt;/span&gt;&lt;span style=&quot;white-space: pre;&quot;&gt;&#x9;&lt;/span&gt;&lt;span style=&quot;white-space: pre;&quot;&gt;&#x9;&lt;/span&gt;&lt;span style=&quot;white-space: pre;&quot;&gt;&#x9;&lt;/span&gt;.&lt;span style=&quot;white-space: pre;&quot;&gt;&#x9;&lt;/span&gt;&lt;span style=&quot;white-space: pre;&quot;&gt;&#x9;&lt;/span&gt;&lt;span style=&quot;white-space: pre;&quot;&gt;&#x9;&lt;/span&gt;&lt;span style=&quot;white-space: pre;&quot;&gt;&#x9;&lt;/span&gt;.&lt;/div&gt;" style="text;strokeColor=none;fillColor=#B3B3B3;align=left;verticalAlign=middle;spacingLeft=4;spacingRight=4;overflow=hidden;points=[[0,0.5],[1,0.5]];portConstraint=eastwest;rotatable=0;whiteSpace=wrap;html=1;" vertex="1" parent="_hzz50pAHIIWiuJxTLdp-124">
          <mxGeometry y="60" width="310" height="70" as="geometry" />
        </mxCell>
        <mxCell id="_hzz50pAHIIWiuJxTLdp-127" value="Customer N | Feature 1..Feature N | Spend in X months" style="text;strokeColor=none;fillColor=#B3B3B3;align=left;verticalAlign=middle;spacingLeft=4;spacingRight=4;overflow=hidden;points=[[0,0.5],[1,0.5]];portConstraint=eastwest;rotatable=0;whiteSpace=wrap;html=1;" vertex="1" parent="_hzz50pAHIIWiuJxTLdp-124">
          <mxGeometry y="130" width="310" height="30" as="geometry" />
        </mxCell>
        <mxCell id="_hzz50pAHIIWiuJxTLdp-128" value="Data Set Customer Segment B" style="swimlane;fontStyle=0;childLayout=stackLayout;horizontal=1;startSize=30;horizontalStack=0;resizeParent=1;resizeParentMax=0;resizeLast=0;collapsible=1;marginBottom=0;whiteSpace=wrap;html=1;fillColor=#47C2FF;" vertex="1" parent="1">
          <mxGeometry x="170" y="410" width="310" height="160" as="geometry" />
        </mxCell>
        <mxCell id="_hzz50pAHIIWiuJxTLdp-129" value="Customer 1 | Feature 1..Feature N | Spend in X months" style="text;strokeColor=none;fillColor=#B3B3B3;align=left;verticalAlign=middle;spacingLeft=4;spacingRight=4;overflow=hidden;points=[[0,0.5],[1,0.5]];portConstraint=eastwest;rotatable=0;whiteSpace=wrap;html=1;" vertex="1" parent="_hzz50pAHIIWiuJxTLdp-128">
          <mxGeometry y="30" width="310" height="30" as="geometry" />
        </mxCell>
        <mxCell id="_hzz50pAHIIWiuJxTLdp-130" value="Customer 2 | Feature 1..Feature N | Spend in X months&lt;div&gt;&lt;span style=&quot;white-space: pre;&quot;&gt;&#x9;&lt;/span&gt;.&lt;span style=&quot;white-space: pre;&quot;&gt;&#x9;&lt;/span&gt;&lt;span style=&quot;white-space: pre;&quot;&gt;&#x9;&lt;/span&gt;&lt;span style=&quot;white-space: pre;&quot;&gt;&#x9;&lt;/span&gt;&lt;span style=&quot;white-space: pre;&quot;&gt;&#x9;&lt;/span&gt;.&lt;span style=&quot;white-space: pre;&quot;&gt;&#x9;&lt;/span&gt;&lt;span style=&quot;white-space: pre;&quot;&gt;&#x9;&lt;/span&gt;&lt;span style=&quot;white-space: pre;&quot;&gt;&#x9;&lt;/span&gt;&lt;span style=&quot;white-space: pre;&quot;&gt;&#x9;&lt;/span&gt;.&lt;/div&gt;&lt;div&gt;&lt;span style=&quot;white-space: pre;&quot;&gt;&#x9;&lt;/span&gt;.&lt;span style=&quot;white-space: pre;&quot;&gt;&#x9;&lt;/span&gt;&lt;span style=&quot;white-space: pre;&quot;&gt;&#x9;&lt;/span&gt;&lt;span style=&quot;white-space: pre;&quot;&gt;&#x9;&lt;/span&gt;&lt;span style=&quot;white-space: pre;&quot;&gt;&#x9;&lt;/span&gt;.&lt;span style=&quot;white-space: pre;&quot;&gt;&#x9;&lt;/span&gt;&lt;span style=&quot;white-space: pre;&quot;&gt;&#x9;&lt;/span&gt;&lt;span style=&quot;white-space: pre;&quot;&gt;&#x9;&lt;/span&gt;&lt;span style=&quot;white-space: pre;&quot;&gt;&#x9;&lt;/span&gt;.&lt;/div&gt;&lt;div&gt;&lt;span style=&quot;white-space: pre;&quot;&gt;&#x9;&lt;/span&gt;.&lt;span style=&quot;white-space: pre;&quot;&gt;&#x9;&lt;/span&gt;&lt;span style=&quot;white-space: pre;&quot;&gt;&#x9;&lt;/span&gt;&lt;span style=&quot;white-space: pre;&quot;&gt;&#x9;&lt;/span&gt;&lt;span style=&quot;white-space: pre;&quot;&gt;&#x9;&lt;/span&gt;.&lt;span style=&quot;white-space: pre;&quot;&gt;&#x9;&lt;/span&gt;&lt;span style=&quot;white-space: pre;&quot;&gt;&#x9;&lt;/span&gt;&lt;span style=&quot;white-space: pre;&quot;&gt;&#x9;&lt;/span&gt;&lt;span style=&quot;white-space: pre;&quot;&gt;&#x9;&lt;/span&gt;.&lt;/div&gt;" style="text;strokeColor=none;fillColor=#B3B3B3;align=left;verticalAlign=middle;spacingLeft=4;spacingRight=4;overflow=hidden;points=[[0,0.5],[1,0.5]];portConstraint=eastwest;rotatable=0;whiteSpace=wrap;html=1;" vertex="1" parent="_hzz50pAHIIWiuJxTLdp-128">
          <mxGeometry y="60" width="310" height="70" as="geometry" />
        </mxCell>
        <mxCell id="_hzz50pAHIIWiuJxTLdp-131" value="Customer N | Feature 1..Feature N | Spend in X months" style="text;strokeColor=none;fillColor=#B3B3B3;align=left;verticalAlign=middle;spacingLeft=4;spacingRight=4;overflow=hidden;points=[[0,0.5],[1,0.5]];portConstraint=eastwest;rotatable=0;whiteSpace=wrap;html=1;" vertex="1" parent="_hzz50pAHIIWiuJxTLdp-128">
          <mxGeometry y="130" width="310" height="30" as="geometry" />
        </mxCell>
        <mxCell id="_hzz50pAHIIWiuJxTLdp-132" value="Data Set Customer Segment C" style="swimlane;fontStyle=0;childLayout=stackLayout;horizontal=1;startSize=30;horizontalStack=0;resizeParent=1;resizeParentMax=0;resizeLast=0;collapsible=1;marginBottom=0;whiteSpace=wrap;html=1;fillColor=#47C2FF;" vertex="1" parent="1">
          <mxGeometry x="160" y="685" width="310" height="160" as="geometry" />
        </mxCell>
        <mxCell id="_hzz50pAHIIWiuJxTLdp-133" value="Customer 1 | Feature 1..Feature N | Spend in X months" style="text;strokeColor=none;fillColor=#B3B3B3;align=left;verticalAlign=middle;spacingLeft=4;spacingRight=4;overflow=hidden;points=[[0,0.5],[1,0.5]];portConstraint=eastwest;rotatable=0;whiteSpace=wrap;html=1;" vertex="1" parent="_hzz50pAHIIWiuJxTLdp-132">
          <mxGeometry y="30" width="310" height="30" as="geometry" />
        </mxCell>
        <mxCell id="_hzz50pAHIIWiuJxTLdp-134" value="Customer 2 | Feature 1..Feature N | Spend in X months&lt;div&gt;&lt;span style=&quot;white-space: pre;&quot;&gt;&#x9;&lt;/span&gt;.&lt;span style=&quot;white-space: pre;&quot;&gt;&#x9;&lt;/span&gt;&lt;span style=&quot;white-space: pre;&quot;&gt;&#x9;&lt;/span&gt;&lt;span style=&quot;white-space: pre;&quot;&gt;&#x9;&lt;/span&gt;&lt;span style=&quot;white-space: pre;&quot;&gt;&#x9;&lt;/span&gt;.&lt;span style=&quot;white-space: pre;&quot;&gt;&#x9;&lt;/span&gt;&lt;span style=&quot;white-space: pre;&quot;&gt;&#x9;&lt;/span&gt;&lt;span style=&quot;white-space: pre;&quot;&gt;&#x9;&lt;/span&gt;&lt;span style=&quot;white-space: pre;&quot;&gt;&#x9;&lt;/span&gt;.&lt;/div&gt;&lt;div&gt;&lt;span style=&quot;white-space: pre;&quot;&gt;&#x9;&lt;/span&gt;.&lt;span style=&quot;white-space: pre;&quot;&gt;&#x9;&lt;/span&gt;&lt;span style=&quot;white-space: pre;&quot;&gt;&#x9;&lt;/span&gt;&lt;span style=&quot;white-space: pre;&quot;&gt;&#x9;&lt;/span&gt;&lt;span style=&quot;white-space: pre;&quot;&gt;&#x9;&lt;/span&gt;.&lt;span style=&quot;white-space: pre;&quot;&gt;&#x9;&lt;/span&gt;&lt;span style=&quot;white-space: pre;&quot;&gt;&#x9;&lt;/span&gt;&lt;span style=&quot;white-space: pre;&quot;&gt;&#x9;&lt;/span&gt;&lt;span style=&quot;white-space: pre;&quot;&gt;&#x9;&lt;/span&gt;.&lt;/div&gt;&lt;div&gt;&lt;span style=&quot;white-space: pre;&quot;&gt;&#x9;&lt;/span&gt;.&lt;span style=&quot;white-space: pre;&quot;&gt;&#x9;&lt;/span&gt;&lt;span style=&quot;white-space: pre;&quot;&gt;&#x9;&lt;/span&gt;&lt;span style=&quot;white-space: pre;&quot;&gt;&#x9;&lt;/span&gt;&lt;span style=&quot;white-space: pre;&quot;&gt;&#x9;&lt;/span&gt;.&lt;span style=&quot;white-space: pre;&quot;&gt;&#x9;&lt;/span&gt;&lt;span style=&quot;white-space: pre;&quot;&gt;&#x9;&lt;/span&gt;&lt;span style=&quot;white-space: pre;&quot;&gt;&#x9;&lt;/span&gt;&lt;span style=&quot;white-space: pre;&quot;&gt;&#x9;&lt;/span&gt;.&lt;/div&gt;" style="text;strokeColor=none;fillColor=#B3B3B3;align=left;verticalAlign=middle;spacingLeft=4;spacingRight=4;overflow=hidden;points=[[0,0.5],[1,0.5]];portConstraint=eastwest;rotatable=0;whiteSpace=wrap;html=1;" vertex="1" parent="_hzz50pAHIIWiuJxTLdp-132">
          <mxGeometry y="60" width="310" height="70" as="geometry" />
        </mxCell>
        <mxCell id="_hzz50pAHIIWiuJxTLdp-135" value="Customer N | Feature 1..Feature N | Spend in X months" style="text;strokeColor=none;fillColor=#B3B3B3;align=left;verticalAlign=middle;spacingLeft=4;spacingRight=4;overflow=hidden;points=[[0,0.5],[1,0.5]];portConstraint=eastwest;rotatable=0;whiteSpace=wrap;html=1;" vertex="1" parent="_hzz50pAHIIWiuJxTLdp-132">
          <mxGeometry y="130" width="310" height="30" as="geometry" />
        </mxCell>
        <mxCell id="_hzz50pAHIIWiuJxTLdp-136" value="Data Set Customer Segment C" style="swimlane;fontStyle=0;childLayout=stackLayout;horizontal=1;startSize=30;horizontalStack=0;resizeParent=1;resizeParentMax=0;resizeLast=0;collapsible=1;marginBottom=0;whiteSpace=wrap;html=1;fillColor=#47C2FF;" vertex="1" parent="1">
          <mxGeometry x="170" y="695" width="310" height="160" as="geometry" />
        </mxCell>
        <mxCell id="_hzz50pAHIIWiuJxTLdp-137" value="Customer 1 | Feature 1..Feature N | Spend in X months" style="text;strokeColor=none;fillColor=#B3B3B3;align=left;verticalAlign=middle;spacingLeft=4;spacingRight=4;overflow=hidden;points=[[0,0.5],[1,0.5]];portConstraint=eastwest;rotatable=0;whiteSpace=wrap;html=1;" vertex="1" parent="_hzz50pAHIIWiuJxTLdp-136">
          <mxGeometry y="30" width="310" height="30" as="geometry" />
        </mxCell>
        <mxCell id="_hzz50pAHIIWiuJxTLdp-138" value="Customer 2 | Feature 1..Feature N | Spend in X months&lt;div&gt;&lt;span style=&quot;white-space: pre;&quot;&gt;&#x9;&lt;/span&gt;.&lt;span style=&quot;white-space: pre;&quot;&gt;&#x9;&lt;/span&gt;&lt;span style=&quot;white-space: pre;&quot;&gt;&#x9;&lt;/span&gt;&lt;span style=&quot;white-space: pre;&quot;&gt;&#x9;&lt;/span&gt;&lt;span style=&quot;white-space: pre;&quot;&gt;&#x9;&lt;/span&gt;.&lt;span style=&quot;white-space: pre;&quot;&gt;&#x9;&lt;/span&gt;&lt;span style=&quot;white-space: pre;&quot;&gt;&#x9;&lt;/span&gt;&lt;span style=&quot;white-space: pre;&quot;&gt;&#x9;&lt;/span&gt;&lt;span style=&quot;white-space: pre;&quot;&gt;&#x9;&lt;/span&gt;.&lt;/div&gt;&lt;div&gt;&lt;span style=&quot;white-space: pre;&quot;&gt;&#x9;&lt;/span&gt;.&lt;span style=&quot;white-space: pre;&quot;&gt;&#x9;&lt;/span&gt;&lt;span style=&quot;white-space: pre;&quot;&gt;&#x9;&lt;/span&gt;&lt;span style=&quot;white-space: pre;&quot;&gt;&#x9;&lt;/span&gt;&lt;span style=&quot;white-space: pre;&quot;&gt;&#x9;&lt;/span&gt;.&lt;span style=&quot;white-space: pre;&quot;&gt;&#x9;&lt;/span&gt;&lt;span style=&quot;white-space: pre;&quot;&gt;&#x9;&lt;/span&gt;&lt;span style=&quot;white-space: pre;&quot;&gt;&#x9;&lt;/span&gt;&lt;span style=&quot;white-space: pre;&quot;&gt;&#x9;&lt;/span&gt;.&lt;/div&gt;&lt;div&gt;&lt;span style=&quot;white-space: pre;&quot;&gt;&#x9;&lt;/span&gt;.&lt;span style=&quot;white-space: pre;&quot;&gt;&#x9;&lt;/span&gt;&lt;span style=&quot;white-space: pre;&quot;&gt;&#x9;&lt;/span&gt;&lt;span style=&quot;white-space: pre;&quot;&gt;&#x9;&lt;/span&gt;&lt;span style=&quot;white-space: pre;&quot;&gt;&#x9;&lt;/span&gt;.&lt;span style=&quot;white-space: pre;&quot;&gt;&#x9;&lt;/span&gt;&lt;span style=&quot;white-space: pre;&quot;&gt;&#x9;&lt;/span&gt;&lt;span style=&quot;white-space: pre;&quot;&gt;&#x9;&lt;/span&gt;&lt;span style=&quot;white-space: pre;&quot;&gt;&#x9;&lt;/span&gt;.&lt;/div&gt;" style="text;strokeColor=none;fillColor=#B3B3B3;align=left;verticalAlign=middle;spacingLeft=4;spacingRight=4;overflow=hidden;points=[[0,0.5],[1,0.5]];portConstraint=eastwest;rotatable=0;whiteSpace=wrap;html=1;" vertex="1" parent="_hzz50pAHIIWiuJxTLdp-136">
          <mxGeometry y="60" width="310" height="70" as="geometry" />
        </mxCell>
        <mxCell id="_hzz50pAHIIWiuJxTLdp-139" value="Customer N | Feature 1..Feature N | Spend in X months" style="text;strokeColor=none;fillColor=#B3B3B3;align=left;verticalAlign=middle;spacingLeft=4;spacingRight=4;overflow=hidden;points=[[0,0.5],[1,0.5]];portConstraint=eastwest;rotatable=0;whiteSpace=wrap;html=1;" vertex="1" parent="_hzz50pAHIIWiuJxTLdp-136">
          <mxGeometry y="130" width="310" height="30" as="geometry" />
        </mxCell>
        <mxCell id="_hzz50pAHIIWiuJxTLdp-148" value="" style="rounded=0;whiteSpace=wrap;html=1;fillColor=#B9E0A5;" vertex="1" parent="1">
          <mxGeometry x="-570" y="315" width="100" height="390" as="geometry" />
        </mxCell>
        <mxCell id="_hzz50pAHIIWiuJxTLdp-149" value="Staging" style="text;html=1;align=center;verticalAlign=middle;whiteSpace=wrap;rounded=0;" vertex="1" parent="1">
          <mxGeometry x="-345" y="325" width="60" height="30" as="geometry" />
        </mxCell>
        <mxCell id="_hzz50pAHIIWiuJxTLdp-150" value="Production" style="text;html=1;align=center;verticalAlign=middle;whiteSpace=wrap;rounded=0;" vertex="1" parent="1">
          <mxGeometry x="-550" y="325" width="60" height="30" as="geometry" />
        </mxCell>
        <mxCell id="_hzz50pAHIIWiuJxTLdp-151" value="" style="endArrow=classic;html=1;rounded=0;exitX=-0.02;exitY=0.528;exitDx=0;exitDy=0;exitPerimeter=0;" edge="1" parent="1" source="_hzz50pAHIIWiuJxTLdp-148">
          <mxGeometry width="50" height="50" relative="1" as="geometry">
            <mxPoint x="-660" y="445" as="sourcePoint" />
            <mxPoint x="20" y="290" as="targetPoint" />
            <Array as="points">
              <mxPoint x="-640" y="520" />
              <mxPoint x="-640" y="240" />
              <mxPoint x="20" y="240" />
            </Array>
          </mxGeometry>
        </mxCell>
        <mxCell id="_hzz50pAHIIWiuJxTLdp-155" value="" style="rhombus;whiteSpace=wrap;html=1;fillColor=#97D077;" vertex="1" parent="1">
          <mxGeometry x="-560" y="465" width="80" height="80" as="geometry" />
        </mxCell>
        <mxCell id="_hzz50pAHIIWiuJxTLdp-156" value="" style="rhombus;whiteSpace=wrap;html=1;fillColor=#97D077;" vertex="1" parent="1">
          <mxGeometry x="-560" y="485" width="80" height="80" as="geometry" />
        </mxCell>
        <mxCell id="_hzz50pAHIIWiuJxTLdp-157" value="" style="rhombus;whiteSpace=wrap;html=1;fillColor=#97D077;" vertex="1" parent="1">
          <mxGeometry x="-560" y="515" width="80" height="80" as="geometry" />
        </mxCell>
        <mxCell id="_hzz50pAHIIWiuJxTLdp-158" value="" style="endArrow=classic;html=1;rounded=0;" edge="1" parent="1">
          <mxGeometry width="50" height="50" relative="1" as="geometry">
            <mxPoint x="-365" y="529" as="sourcePoint" />
            <mxPoint x="-465" y="529" as="targetPoint" />
          </mxGeometry>
        </mxCell>
        <mxCell id="_hzz50pAHIIWiuJxTLdp-160" value="&lt;font style=&quot;font-size: 11px;&quot;&gt;Current Data Customer&amp;nbsp;&lt;/font&gt;&lt;div&gt;&lt;font style=&quot;font-size: 11px;&quot;&gt;Segment A&lt;/font&gt;&lt;/div&gt;" style="swimlane;fontStyle=0;childLayout=stackLayout;horizontal=1;startSize=30;horizontalStack=0;resizeParent=1;resizeParentMax=0;resizeLast=0;collapsible=1;marginBottom=0;whiteSpace=wrap;html=1;fillColor=#FF9999;" vertex="1" parent="1">
          <mxGeometry x="-240" y="260" width="170" height="160" as="geometry" />
        </mxCell>
        <mxCell id="_hzz50pAHIIWiuJxTLdp-161" value="&lt;font style=&quot;font-size: 10px;&quot;&gt;Customer 1 | Feature 1..Feature N&lt;/font&gt;" style="text;strokeColor=none;fillColor=#B3B3B3;align=left;verticalAlign=middle;spacingLeft=4;spacingRight=4;overflow=hidden;points=[[0,0.5],[1,0.5]];portConstraint=eastwest;rotatable=0;whiteSpace=wrap;html=1;" vertex="1" parent="_hzz50pAHIIWiuJxTLdp-160">
          <mxGeometry y="30" width="170" height="30" as="geometry" />
        </mxCell>
        <mxCell id="_hzz50pAHIIWiuJxTLdp-162" value="&lt;span style=&quot;font-size: 10px;&quot;&gt;Customer 2 | Feature 1...Feature N&lt;/span&gt;&lt;div&gt;&lt;span style=&quot;font-size: 10px;&quot;&gt;&lt;span style=&quot;white-space: pre;&quot;&gt;&#x9;&lt;/span&gt;&lt;span style=&quot;white-space: pre;&quot;&gt;&#x9;&lt;/span&gt;&lt;span style=&quot;white-space: pre;&quot;&gt;&#x9;&lt;/span&gt;.&lt;br&gt;&lt;/span&gt;&lt;/div&gt;&lt;div&gt;&lt;span style=&quot;font-size: 10px;&quot;&gt;&lt;span style=&quot;white-space: pre;&quot;&gt;&#x9;&lt;/span&gt;&lt;span style=&quot;white-space: pre;&quot;&gt;&#x9;&lt;/span&gt;&lt;span style=&quot;white-space: pre;&quot;&gt;&#x9;&lt;/span&gt;.&lt;br&gt;&lt;/span&gt;&lt;/div&gt;&lt;div&gt;&lt;span style=&quot;font-size: 10px;&quot;&gt;&lt;span style=&quot;white-space: pre;&quot;&gt;&#x9;&lt;/span&gt;&lt;span style=&quot;white-space: pre;&quot;&gt;&#x9;&lt;/span&gt;&lt;span style=&quot;white-space: pre;&quot;&gt;&#x9;&lt;/span&gt;.&lt;br&gt;&lt;/span&gt;&lt;/div&gt;" style="text;strokeColor=none;fillColor=#B3B3B3;align=left;verticalAlign=middle;spacingLeft=4;spacingRight=4;overflow=hidden;points=[[0,0.5],[1,0.5]];portConstraint=eastwest;rotatable=0;whiteSpace=wrap;html=1;" vertex="1" parent="_hzz50pAHIIWiuJxTLdp-160">
          <mxGeometry y="60" width="170" height="70" as="geometry" />
        </mxCell>
        <mxCell id="_hzz50pAHIIWiuJxTLdp-163" value="&lt;font style=&quot;font-size: 10px;&quot;&gt;Customer N | Feature 1..Feature N&lt;/font&gt;" style="text;strokeColor=none;fillColor=#B3B3B3;align=left;verticalAlign=middle;spacingLeft=4;spacingRight=4;overflow=hidden;points=[[0,0.5],[1,0.5]];portConstraint=eastwest;rotatable=0;whiteSpace=wrap;html=1;" vertex="1" parent="_hzz50pAHIIWiuJxTLdp-160">
          <mxGeometry y="130" width="170" height="30" as="geometry" />
        </mxCell>
        <mxCell id="_hzz50pAHIIWiuJxTLdp-172" value="&lt;font style=&quot;font-size: 11px;&quot;&gt;Current Data Customer&amp;nbsp;&lt;/font&gt;&lt;div&gt;&lt;font style=&quot;font-size: 11px;&quot;&gt;Segment B&lt;/font&gt;&lt;/div&gt;" style="swimlane;fontStyle=0;childLayout=stackLayout;horizontal=1;startSize=30;horizontalStack=0;resizeParent=1;resizeParentMax=0;resizeLast=0;collapsible=1;marginBottom=0;whiteSpace=wrap;html=1;fillColor=#FF9999;" vertex="1" parent="1">
          <mxGeometry x="-240" y="430" width="170" height="160" as="geometry" />
        </mxCell>
        <mxCell id="_hzz50pAHIIWiuJxTLdp-173" value="&lt;font style=&quot;font-size: 10px;&quot;&gt;Customer 1 | Feature 1..Feature N&lt;/font&gt;" style="text;strokeColor=none;fillColor=#B3B3B3;align=left;verticalAlign=middle;spacingLeft=4;spacingRight=4;overflow=hidden;points=[[0,0.5],[1,0.5]];portConstraint=eastwest;rotatable=0;whiteSpace=wrap;html=1;" vertex="1" parent="_hzz50pAHIIWiuJxTLdp-172">
          <mxGeometry y="30" width="170" height="30" as="geometry" />
        </mxCell>
        <mxCell id="_hzz50pAHIIWiuJxTLdp-174" value="&lt;span style=&quot;font-size: 10px;&quot;&gt;Customer 2 | Feature 1...Feature N&lt;/span&gt;&lt;div&gt;&lt;span style=&quot;font-size: 10px;&quot;&gt;&lt;span style=&quot;white-space: pre;&quot;&gt;&#x9;&lt;/span&gt;&lt;span style=&quot;white-space: pre;&quot;&gt;&#x9;&lt;/span&gt;&lt;span style=&quot;white-space: pre;&quot;&gt;&#x9;&lt;/span&gt;.&lt;br&gt;&lt;/span&gt;&lt;/div&gt;&lt;div&gt;&lt;span style=&quot;font-size: 10px;&quot;&gt;&lt;span style=&quot;white-space: pre;&quot;&gt;&#x9;&lt;/span&gt;&lt;span style=&quot;white-space: pre;&quot;&gt;&#x9;&lt;/span&gt;&lt;span style=&quot;white-space: pre;&quot;&gt;&#x9;&lt;/span&gt;.&lt;br&gt;&lt;/span&gt;&lt;/div&gt;&lt;div&gt;&lt;span style=&quot;font-size: 10px;&quot;&gt;&lt;span style=&quot;white-space: pre;&quot;&gt;&#x9;&lt;/span&gt;&lt;span style=&quot;white-space: pre;&quot;&gt;&#x9;&lt;/span&gt;&lt;span style=&quot;white-space: pre;&quot;&gt;&#x9;&lt;/span&gt;.&lt;br&gt;&lt;/span&gt;&lt;/div&gt;" style="text;strokeColor=none;fillColor=#B3B3B3;align=left;verticalAlign=middle;spacingLeft=4;spacingRight=4;overflow=hidden;points=[[0,0.5],[1,0.5]];portConstraint=eastwest;rotatable=0;whiteSpace=wrap;html=1;" vertex="1" parent="_hzz50pAHIIWiuJxTLdp-172">
          <mxGeometry y="60" width="170" height="70" as="geometry" />
        </mxCell>
        <mxCell id="_hzz50pAHIIWiuJxTLdp-175" value="&lt;font style=&quot;font-size: 10px;&quot;&gt;Customer N | Feature 1..Feature N&lt;/font&gt;" style="text;strokeColor=none;fillColor=#B3B3B3;align=left;verticalAlign=middle;spacingLeft=4;spacingRight=4;overflow=hidden;points=[[0,0.5],[1,0.5]];portConstraint=eastwest;rotatable=0;whiteSpace=wrap;html=1;" vertex="1" parent="_hzz50pAHIIWiuJxTLdp-172">
          <mxGeometry y="130" width="170" height="30" as="geometry" />
        </mxCell>
        <mxCell id="_hzz50pAHIIWiuJxTLdp-176" value="&lt;font style=&quot;font-size: 11px;&quot;&gt;Current Data Customer&amp;nbsp;&lt;/font&gt;&lt;div&gt;&lt;font style=&quot;font-size: 11px;&quot;&gt;Segment C&lt;/font&gt;&lt;/div&gt;" style="swimlane;fontStyle=0;childLayout=stackLayout;horizontal=1;startSize=30;horizontalStack=0;resizeParent=1;resizeParentMax=0;resizeLast=0;collapsible=1;marginBottom=0;whiteSpace=wrap;html=1;fillColor=#FF9999;" vertex="1" parent="1">
          <mxGeometry x="-240" y="600" width="170" height="160" as="geometry" />
        </mxCell>
        <mxCell id="_hzz50pAHIIWiuJxTLdp-177" value="&lt;font style=&quot;font-size: 10px;&quot;&gt;Customer 1 | Feature 1..Feature N&lt;/font&gt;" style="text;strokeColor=none;fillColor=#B3B3B3;align=left;verticalAlign=middle;spacingLeft=4;spacingRight=4;overflow=hidden;points=[[0,0.5],[1,0.5]];portConstraint=eastwest;rotatable=0;whiteSpace=wrap;html=1;" vertex="1" parent="_hzz50pAHIIWiuJxTLdp-176">
          <mxGeometry y="30" width="170" height="30" as="geometry" />
        </mxCell>
        <mxCell id="_hzz50pAHIIWiuJxTLdp-178" value="&lt;span style=&quot;font-size: 10px;&quot;&gt;Customer 2 | Feature 1...Feature N&lt;/span&gt;&lt;div&gt;&lt;span style=&quot;font-size: 10px;&quot;&gt;&lt;span style=&quot;white-space: pre;&quot;&gt;&#x9;&lt;/span&gt;&lt;span style=&quot;white-space: pre;&quot;&gt;&#x9;&lt;/span&gt;&lt;span style=&quot;white-space: pre;&quot;&gt;&#x9;&lt;/span&gt;.&lt;br&gt;&lt;/span&gt;&lt;/div&gt;&lt;div&gt;&lt;span style=&quot;font-size: 10px;&quot;&gt;&lt;span style=&quot;white-space: pre;&quot;&gt;&#x9;&lt;/span&gt;&lt;span style=&quot;white-space: pre;&quot;&gt;&#x9;&lt;/span&gt;&lt;span style=&quot;white-space: pre;&quot;&gt;&#x9;&lt;/span&gt;.&lt;br&gt;&lt;/span&gt;&lt;/div&gt;&lt;div&gt;&lt;span style=&quot;font-size: 10px;&quot;&gt;&lt;span style=&quot;white-space: pre;&quot;&gt;&#x9;&lt;/span&gt;&lt;span style=&quot;white-space: pre;&quot;&gt;&#x9;&lt;/span&gt;&lt;span style=&quot;white-space: pre;&quot;&gt;&#x9;&lt;/span&gt;.&lt;br&gt;&lt;/span&gt;&lt;/div&gt;" style="text;strokeColor=none;fillColor=#B3B3B3;align=left;verticalAlign=middle;spacingLeft=4;spacingRight=4;overflow=hidden;points=[[0,0.5],[1,0.5]];portConstraint=eastwest;rotatable=0;whiteSpace=wrap;html=1;" vertex="1" parent="_hzz50pAHIIWiuJxTLdp-176">
          <mxGeometry y="60" width="170" height="70" as="geometry" />
        </mxCell>
        <mxCell id="_hzz50pAHIIWiuJxTLdp-179" value="&lt;font style=&quot;font-size: 10px;&quot;&gt;Customer N | Feature 1..Feature N&lt;/font&gt;" style="text;strokeColor=none;fillColor=#B3B3B3;align=left;verticalAlign=middle;spacingLeft=4;spacingRight=4;overflow=hidden;points=[[0,0.5],[1,0.5]];portConstraint=eastwest;rotatable=0;whiteSpace=wrap;html=1;" vertex="1" parent="_hzz50pAHIIWiuJxTLdp-176">
          <mxGeometry y="130" width="170" height="30" as="geometry" />
        </mxCell>
        <mxCell id="_hzz50pAHIIWiuJxTLdp-191" value="" style="shape=image;verticalLabelPosition=bottom;labelBackgroundColor=default;verticalAlign=top;aspect=fixed;imageAspect=0;image=https://static.vecteezy.com/system/resources/previews/011/249/156/non_2x/dashboard-ui-flat-wireframe-concept-illustration-vector.jpg;" vertex="1" parent="1">
          <mxGeometry x="-330" y="52" width="260" height="156" as="geometry" />
        </mxCell>
        <mxCell id="_hzz50pAHIIWiuJxTLdp-192" value="" style="endArrow=classic;html=1;rounded=0;" edge="1" parent="1">
          <mxGeometry width="50" height="50" relative="1" as="geometry">
            <mxPoint x="40" y="290" as="sourcePoint" />
            <mxPoint x="-60" y="120" as="targetPoint" />
            <Array as="points">
              <mxPoint x="40" y="120" />
            </Array>
          </mxGeometry>
        </mxCell>
        <mxCell id="_hzz50pAHIIWiuJxTLdp-194" value="Experimentation&lt;div&gt;Tracking&lt;/div&gt;" style="text;html=1;align=center;verticalAlign=middle;whiteSpace=wrap;rounded=0;" vertex="1" parent="1">
          <mxGeometry x="670" y="50" width="80" height="30" as="geometry" />
        </mxCell>
        <mxCell id="_hzz50pAHIIWiuJxTLdp-195" value="" style="endArrow=classic;html=1;rounded=0;" edge="1" parent="1">
          <mxGeometry width="50" height="50" relative="1" as="geometry">
            <mxPoint x="-370" y="480" as="sourcePoint" />
            <mxPoint x="-340" y="200" as="targetPoint" />
            <Array as="points">
              <mxPoint x="-400" y="480" />
              <mxPoint x="-400" y="200" />
            </Array>
          </mxGeometry>
        </mxCell>
        <mxCell id="_hzz50pAHIIWiuJxTLdp-197" value="" style="endArrow=classic;html=1;rounded=0;" edge="1" parent="1">
          <mxGeometry width="50" height="50" relative="1" as="geometry">
            <mxPoint x="-580" y="500" as="sourcePoint" />
            <mxPoint x="-350" y="180" as="targetPoint" />
            <Array as="points">
              <mxPoint x="-610" y="500" />
              <mxPoint x="-610" y="320" />
              <mxPoint x="-610" y="180" />
            </Array>
          </mxGeometry>
        </mxCell>
        <mxCell id="_hzz50pAHIIWiuJxTLdp-205" value="" style="shape=flexArrow;endArrow=classic;html=1;rounded=0;fillColor=#B3B3B3;" edge="1" parent="1">
          <mxGeometry width="50" height="50" relative="1" as="geometry">
            <mxPoint x="110" y="430" as="sourcePoint" />
            <mxPoint x="140" y="405" as="targetPoint" />
          </mxGeometry>
        </mxCell>
        <mxCell id="_hzz50pAHIIWiuJxTLdp-207" value="" style="shape=flexArrow;endArrow=classic;html=1;rounded=0;fillColor=#B3B3B3;" edge="1" parent="1">
          <mxGeometry width="50" height="50" relative="1" as="geometry">
            <mxPoint x="-30" y="500" as="sourcePoint" />
            <mxPoint x="-60" y="500" as="targetPoint" />
          </mxGeometry>
        </mxCell>
        <mxCell id="_hzz50pAHIIWiuJxTLdp-208" value="" style="shape=flexArrow;endArrow=classic;html=1;rounded=0;fillColor=#B3B3B3;" edge="1" parent="1">
          <mxGeometry width="50" height="50" relative="1" as="geometry">
            <mxPoint x="-30" y="430" as="sourcePoint" />
            <mxPoint x="-60" y="410" as="targetPoint" />
          </mxGeometry>
        </mxCell>
        <mxCell id="_hzz50pAHIIWiuJxTLdp-209" value="" style="shape=flexArrow;endArrow=classic;html=1;rounded=0;fillColor=#B3B3B3;" edge="1" parent="1">
          <mxGeometry width="50" height="50" relative="1" as="geometry">
            <mxPoint x="-30" y="571.05" as="sourcePoint" />
            <mxPoint x="-60" y="595" as="targetPoint" />
          </mxGeometry>
        </mxCell>
        <mxCell id="_hzz50pAHIIWiuJxTLdp-210" value="" style="shape=flexArrow;endArrow=classic;html=1;rounded=0;fillColor=#B3B3B3;" edge="1" parent="1">
          <mxGeometry width="50" height="50" relative="1" as="geometry">
            <mxPoint x="110" y="500" as="sourcePoint" />
            <mxPoint x="140" y="500" as="targetPoint" />
          </mxGeometry>
        </mxCell>
        <mxCell id="_hzz50pAHIIWiuJxTLdp-211" value="" style="shape=flexArrow;endArrow=classic;html=1;rounded=0;fillColor=#B3B3B3;" edge="1" parent="1">
          <mxGeometry width="50" height="50" relative="1" as="geometry">
            <mxPoint x="110" y="570" as="sourcePoint" />
            <mxPoint x="140" y="595" as="targetPoint" />
          </mxGeometry>
        </mxCell>
      </root>
    </mxGraphModel>
  </diagram>
</mxfile>
